# xmcd
#
# Track frame offsets:
#	150
#	31688
#	125897
#	240709
#
# Disc length: 3888 seconds
#
# Revision: 1
# Processed by: cddbd v1.5.2PL0 Copyright (c) Steve Scherf et al.
# Submitted via: audiograbber 1.83.01
#
DISCID=2e0f2e04
DTITLE=Grateful Dead - 69-02-21 Dream Bowl, Napa CA
DYEAR=1900
DGENRE=
TTITLE0=St Stephen
TTITLE1=The Eleven
TTITLE2=Turn On Your Lovelight
TTITLE3=Morning Dew
EXTD=
EXTT0=
EXTT1=
EXTT2=
EXTT3=
PLAYORDER=
